<svg width="155" height="32" viewBox="0 0 155 32" fill="none" xmlns="http://www.w3.org/2000/svg">
<path d="M17.6197 25.6893C17.6485 22.7521 16.9038 20.3636 15.9566 20.3544C15.0094 20.3452 14.2182 22.7187 14.1895 25.6557C14.1608 28.5929 14.9054 30.9814 15.8526 30.9907C16.7999 30.9999 17.5911 28.6264 17.6197 25.6893Z" fill="white"/>
<path d="M12.1262 25.0222C13.7384 22.5669 14.4034 20.155 13.6116 19.6351C12.8197 19.1151 10.8709 20.684 9.2587 23.1393C7.64647 25.5946 6.98145 28.0065 7.77326 28.5265C8.56513 29.0464 10.5139 27.4775 12.1262 25.0222Z" fill="white"/>
<path d="M7.85877 21.4995C10.5425 20.3058 12.406 18.6364 12.021 17.7709C11.636 16.9053 9.14837 17.1714 6.46459 18.3652C3.78084 19.559 1.91734 21.2283 2.30233 22.0939C2.68731 22.9594 5.17502 22.6933 7.85877 21.4995Z" fill="white"/>
<path d="M11.6989 15.3437C11.843 14.4074 9.6064 13.2862 6.70336 12.8394C3.80025 12.3925 1.33001 12.7893 1.18591 13.7256C1.04181 14.6618 3.2784 15.783 6.18149 16.2298C9.08455 16.6767 11.5548 16.2799 11.6989 15.3437Z" fill="white"/>
<path d="M12.7411 13.1133C13.3685 12.4035 12.0928 10.2512 9.89192 8.3061C7.69102 6.36096 5.3983 5.35951 4.77098 6.06931C4.14367 6.77912 5.41932 8.93138 7.62024 10.8765C9.82114 12.8217 12.1139 13.8231 12.7411 13.1133Z" fill="white"/>
<path d="M14.8168 11.8098C15.7283 11.5519 15.8189 9.05158 15.0191 6.2253C14.2194 3.39901 12.8321 1.31693 11.9207 1.57486C11.0092 1.83278 10.9186 4.33303 11.7183 7.15936C12.5181 9.9856 13.9054 12.0677 14.8168 11.8098Z" fill="white"/>
<path d="M20.4534 7.24729C21.3088 4.4373 21.2676 1.93575 20.3613 1.6599C19.4551 1.38405 18.0271 3.43836 17.1717 6.24833C16.3164 9.05829 16.3576 11.5599 17.2639 11.8357C18.1701 12.1115 19.5981 10.0573 20.4534 7.24729Z" fill="white"/>
<path d="M24.481 11.0442C26.7195 9.1424 28.037 7.01548 27.4236 6.29358C26.8103 5.57166 24.4984 6.52812 22.26 8.42982C20.0214 10.3316 18.704 12.4585 19.3173 13.1804C19.9306 13.9023 22.2425 12.9459 24.481 11.0442Z" fill="white"/>
<path d="M25.8126 16.4172C28.724 16.0277 30.9822 14.9509 30.8566 14.0119C30.731 13.073 28.269 12.6277 25.3577 13.0171C22.4464 13.4066 20.1881 14.4835 20.3137 15.4224C20.4393 16.3613 22.9012 16.8067 25.8126 16.4172Z" fill="white"/>
<path d="M29.5683 22.3622C29.9702 21.5045 28.14 19.7987 25.4803 18.5522C22.8207 17.3058 20.3387 16.9907 19.9367 17.8484C19.5347 18.7062 21.3649 20.412 24.0246 21.6585C26.6843 22.9049 29.1663 23.22 29.5683 22.3622Z" fill="white"/>
<path d="M23.9737 28.6911C24.7756 28.1869 24.1583 25.7624 22.5948 23.2758C21.0314 20.7892 19.1138 19.1822 18.3119 19.6864C17.51 20.1906 18.1273 22.6152 19.6908 25.1017C21.2542 27.5883 23.1718 29.1954 23.9737 28.6911Z" fill="white"/>
<path d="M38.656 24.5V7.796H40.7208V22.5396H48.4696V24.5H38.656ZM50.2639 9.7564V7.622H52.3287V9.7564H50.2639ZM50.2639 24.5V11.972H52.3287V24.5H50.2639ZM56.604 24.5V11.2876C56.604 10.9628 56.6195 10.6341 56.6504 10.3016C56.6813 9.96133 56.7509 9.63267 56.8592 9.3156C56.9675 8.9908 57.1453 8.69307 57.3928 8.4224C57.6789 8.10533 57.9921 7.88107 58.3324 7.7496C58.6727 7.6104 59.0168 7.52534 59.3648 7.4944C59.7205 7.46347 60.0569 7.448 60.374 7.448H61.9632V9.1648H60.49C59.8791 9.1648 59.4228 9.3156 59.1212 9.6172C58.8196 9.91107 58.6688 10.3596 58.6688 10.9628V24.5H56.604ZM54.4812 13.6772V11.972H61.9632V13.6772H54.4812ZM68.3903 24.848C67.1607 24.848 66.0858 24.5773 65.1655 24.036C64.253 23.4869 63.5415 22.7252 63.0311 21.7508C62.5207 20.7687 62.2655 19.6241 62.2655 18.3172C62.2655 16.9484 62.5169 15.7652 63.0195 14.7676C63.5222 13.7623 64.2221 12.9889 65.1191 12.4476C66.0239 11.8985 67.0834 11.624 68.2975 11.624C69.5581 11.624 70.6291 11.914 71.5107 12.494C72.4001 13.074 73.0651 13.9015 73.5059 14.9764C73.9545 16.0513 74.1478 17.3312 74.0859 18.816H71.9979V18.0736C71.9747 16.5347 71.6615 15.3863 71.0583 14.6284C70.4551 13.8628 69.5581 13.48 68.3671 13.48C67.0911 13.48 66.1206 13.8899 65.4555 14.7096C64.7905 15.5293 64.4579 16.7048 64.4579 18.236C64.4579 19.7131 64.7905 20.8576 65.4555 21.6696C66.1206 22.4816 67.0679 22.8876 68.2975 22.8876C69.125 22.8876 69.8442 22.6981 70.4551 22.3192C71.0661 21.9403 71.5455 21.3951 71.8935 20.6836L73.8771 21.368C73.3899 22.4739 72.6553 23.3323 71.6731 23.9432C70.6987 24.5464 69.6045 24.848 68.3903 24.848ZM63.7619 18.816V17.1572H73.0187V18.816H63.7619ZM83.2634 24.5C82.521 24.6469 81.7863 24.7049 81.0594 24.674C80.3402 24.6508 79.6983 24.5077 79.1338 24.2448C78.5692 23.9741 78.14 23.5565 77.8462 22.992C77.5987 22.4971 77.4634 21.9983 77.4402 21.4956C77.4247 20.9852 77.417 20.4091 77.417 19.7672V8.492H79.4818V19.6744C79.4818 20.1848 79.4856 20.6217 79.4934 20.9852C79.5088 21.3487 79.59 21.6619 79.737 21.9248C80.0154 22.4197 80.4562 22.7097 81.0594 22.7948C81.6703 22.8799 82.405 22.8567 83.2634 22.7252V24.5ZM74.8766 13.6772V11.972H83.2634V13.6772H74.8766ZM85.6389 9.7564V7.622H87.7037V9.7564H85.6389ZM85.6389 24.5V11.972H87.7037V24.5H85.6389ZM105.76 24.5L105.771 16.4844C105.771 15.5487 105.52 14.8179 105.017 14.292C104.522 13.7584 103.877 13.4916 103.08 13.4916C102.616 13.4916 102.175 13.5999 101.758 13.8164C101.34 14.0252 101 14.3577 100.737 14.814C100.474 15.2625 100.343 15.8387 100.343 16.5424L99.2522 16.1016C99.2367 15.2123 99.4185 14.4351 99.7974 13.77C100.184 13.0972 100.71 12.5752 101.375 12.204C102.04 11.8328 102.79 11.6472 103.625 11.6472C104.932 11.6472 105.961 12.0455 106.711 12.842C107.461 13.6308 107.836 14.6941 107.836 16.032L107.825 24.5H105.76ZM90.7726 24.5V11.972H92.617V15.3244H92.849V24.5H90.7726ZM98.2778 24.5L98.2894 16.5656C98.2894 15.6067 98.0419 14.8565 97.547 14.3152C97.0521 13.7661 96.3947 13.4916 95.575 13.4916C94.763 13.4916 94.1057 13.77 93.603 14.3268C93.1003 14.8836 92.849 15.6221 92.849 16.5424L91.7586 15.8928C91.7586 15.0808 91.9519 14.3539 92.3386 13.712C92.7253 13.0701 93.2511 12.5675 93.9162 12.204C94.5813 11.8328 95.3353 11.6472 96.1782 11.6472C97.0211 11.6472 97.7558 11.8251 98.3822 12.1808C99.0086 12.5365 99.4919 13.0469 99.8322 13.712C100.172 14.3693 100.343 15.1543 100.343 16.0668L100.331 24.5H98.2778ZM115.773 24.848C114.544 24.848 113.469 24.5773 112.548 24.036C111.636 23.4869 110.924 22.7252 110.414 21.7508C109.904 20.7687 109.648 19.6241 109.648 18.3172C109.648 16.9484 109.9 15.7652 110.402 14.7676C110.905 13.7623 111.605 12.9889 112.502 12.4476C113.407 11.8985 114.466 11.624 115.68 11.624C116.941 11.624 118.012 11.914 118.894 12.494C119.783 13.074 120.448 13.9015 120.889 14.9764C121.337 16.0513 121.531 17.3312 121.469 18.816H119.381V18.0736C119.358 16.5347 119.044 15.3863 118.441 14.6284C117.838 13.8628 116.941 13.48 115.75 13.48C114.474 13.48 113.503 13.8899 112.838 14.7096C112.173 15.5293 111.841 16.7048 111.841 18.236C111.841 19.7131 112.173 20.8576 112.838 21.6696C113.503 22.4816 114.451 22.8876 115.68 22.8876C116.508 22.8876 117.227 22.6981 117.838 22.3192C118.449 21.9403 118.928 21.3951 119.276 20.6836L121.26 21.368C120.773 22.4739 120.038 23.3323 119.056 23.9432C118.082 24.5464 116.987 24.848 115.773 24.848ZM111.145 18.816V17.1572H120.402V18.816H111.145ZM122.491 24.5L128.083 7.796H130.959L136.551 24.5H134.405L129.173 9.0024H129.823L124.637 24.5H122.491ZM125.183 20.5908V18.6536H133.859V20.5908H125.183ZM138.227 24.5V11.972H140.072V14.9996L139.77 14.6052C139.917 14.2185 140.106 13.8628 140.338 13.538C140.578 13.2132 140.845 12.9464 141.139 12.7376C141.464 12.4747 141.831 12.2736 142.241 12.1344C142.651 11.9952 143.068 11.914 143.494 11.8908C143.919 11.8599 144.317 11.8869 144.688 11.972V13.9092C144.255 13.7932 143.78 13.7623 143.262 13.8164C142.743 13.8705 142.264 14.06 141.823 14.3848C141.421 14.6709 141.108 15.0189 140.884 15.4288C140.667 15.8387 140.516 16.2833 140.431 16.7628C140.346 17.2345 140.304 17.7179 140.304 18.2128V24.5H138.227ZM153.477 24.5C152.734 24.6469 152 24.7049 151.273 24.674C150.553 24.6508 149.912 24.5077 149.347 24.2448C148.783 23.9741 148.353 23.5565 148.059 22.992C147.812 22.4971 147.677 21.9983 147.653 21.4956C147.638 20.9852 147.63 20.4091 147.63 19.7672V8.492H149.695V19.6744C149.695 20.1848 149.699 20.6217 149.707 20.9852C149.722 21.3487 149.803 21.6619 149.95 21.9248C150.229 22.4197 150.669 22.7097 151.273 22.7948C151.884 22.8799 152.618 22.8567 153.477 22.7252V24.5ZM145.09 13.6772V11.972H153.477V13.6772H145.09Z" fill="white"/>
</svg>
